<svg id="visual" viewBox="0 0 960 540" width="960" height="540" xmlns="http://www.w3.org/2000/svg" xmlns:xlink="http://www.w3.org/1999/xlink" version="1.1"><rect x="0" y="0" width="960" height="540" fill="#FBF9F7"></rect><defs><linearGradient id="grad1_0" x1="43.8%" y1="0%" x2="100%" y2="100%"><stop offset="14.444444444444446%" stop-color="#fbf9f7" stop-opacity="1"></stop><stop offset="85.55555555555554%" stop-color="#fbf9f7" stop-opacity="1"></stop></linearGradient></defs><defs><linearGradient id="grad2_0" x1="0%" y1="0%" x2="56.3%" y2="100%"><stop offset="14.444444444444446%" stop-color="#fbf9f7" stop-opacity="1"></stop><stop offset="85.55555555555554%" stop-color="#fbf9f7" stop-opacity="1"></stop></linearGradient></defs><g transform="translate(960, 0)"><path d="M0 216C-20.6 205.8 -41.2 195.5 -60.9 187.4C-80.6 179.2 -99.4 173.1 -119.3 164.2C-139.3 155.4 -160.4 143.8 -174.7 127C-189.1 110.1 -196.8 87.9 -202.6 65.8C-208.3 43.8 -212.2 21.9 -216 0L0 0Z" fill="#524039"></path></g><g transform="translate(0, 540)"><path d="M0 -216C21.4 -208.8 42.7 -201.5 63 -194C83.4 -186.5 102.6 -178.7 122.3 -168.3C141.9 -157.8 161.9 -144.8 174.7 -127C187.5 -109.1 193.1 -86.5 198.8 -64.6C204.4 -42.6 210.2 -21.3 216 0L0 0Z" fill="#524039"></path></g></svg>